<?xml version="1.0" encoding="UTF-8"?>
<!DOCTYPE svg PUBLIC "-//W3C//DTD SVG 1.1//EN" "http://www.w3.org/Graphics/SVG/1.1/DTD/svg11.dtd">
<!-- Creator: CorelDRAW -->
<svg xmlns="http://www.w3.org/2000/svg" xml:space="preserve" width="288.147mm" height="144.073mm" version="1.1" style="shape-rendering:geometricPrecision; text-rendering:geometricPrecision; image-rendering:optimizeQuality; fill-rule:evenodd; clip-rule:evenodd"
viewBox="0 0 5113.23 2556.6"
 xmlns:xlink="http://www.w3.org/1999/xlink"
 xmlns:xodm="http://www.corel.com/coreldraw/odm/2003">
 <defs>
  <style type="text/css">
   <![CDATA[
    .fil0 {fill:black}
    .fil2 {fill:#000096}
    .fil3 {fill:white}
    .fil1 {fill:#FCFCFD}
   ]]>
  </style>
 </defs>
 <g id="Layer_x0020_1">
  <metadata id="CorelCorpID_0Corel-Layer"/>
  <path class="fil0" d="M2556.62 1518.58l-557.46 0 0 -76.88 -326.78 0 0 -96.13 -76.9 0 0 -76.88 76.9 0 0 -153.8 76.9 0 0 -153.77 76.88 0 0 -96.11 96.13 0 0 -76.9 76.88 0 0 -76.9 153.8 0 0 -76.88 153.77 0 0 -76.9 249.89 0 249.89 0 0 76.9 153.77 0 0 76.88 153.8 0 0 76.9 76.88 0 0 76.9 96.13 0 0 96.11 76.88 0 0 153.77 76.9 0 0 153.8 76.9 0 0 76.88 -76.9 0 0 96.13 -326.78 0 0 76.88 -557.46 0zm0 634.35l-326.79 0 0 -76.88 -153.77 0 0 -76.9 -76.9 0 0 -76.9 -76.88 0 0 -173.01 634.34 0 634.34 0 0 173.01 -76.88 0 0 76.9 -76.9 0 0 76.9 -153.77 0 0 76.88 -326.79 0zm249.89 -153.77l-96.11 0 0 76.9 96.11 0 0 -76.9zm-499.78 0l96.11 0 0 76.9 -96.11 0 0 -76.9zm980.36 -730.45l-96.13 0 0 76.88 96.13 0 0 -76.88zm-480.57 -557.47l-96.11 0 0 76.9 96.11 0 0 -76.9zm-980.36 557.47l96.13 0 0 76.88 -96.13 0 0 -76.88zm480.57 -557.47l96.11 0 0 76.9 -96.11 0 0 -76.9z"/>
  <path class="fil1" d="M2556.62 2152.93l-326.79 0 0 -76.88 -153.77 0 0 -76.9 -76.9 0 0 -76.9 -76.88 0 0 -173.01 -96.13 0 0 -153.77 730.47 0 730.47 0 0 153.77 -96.13 0 0 173.01 -76.88 0 0 76.9 -76.9 0 0 76.9 -153.77 0 0 76.88 -326.79 0zm0 -634.35l-557.46 0 0 -76.88 -326.78 0 0 -96.13 -76.9 0 0 -76.88 76.9 0 0 -153.8 76.9 0 0 -153.77 76.88 0 0 -96.11 96.13 0 0 -76.9 76.88 0 0 -76.9 153.8 0 0 -76.88 153.77 0 0 -76.9 249.89 0 249.89 0 0 76.9 153.77 0 0 76.88 153.8 0 0 76.9 76.88 0 0 76.9 96.13 0 0 96.11 76.88 0 0 153.77 76.9 0 0 153.8 76.9 0 0 76.88 -76.9 0 0 96.13 -326.78 0 0 76.88 -557.46 0zm0 -1038.03l-326.79 0 0 76.9 -230.67 0 0 76.9 -76.88 0 0 76.88 -96.13 0 0 76.9 -76.88 0 0 76.9 -76.9 0 0 96.11 -76.9 0 0 153.77 -76.87 0 0 76.9 -76.9 0 0 249.9 76.9 0 0 76.88 153.77 0 0 230.67 0 76.9 76.9 0 0 96.11 76.88 0 0 76.9 96.13 0 0 76.9 76.88 0 0 76.88 76.9 0 0 76.9 76.9 0 76.88 0 0 76.9 326.79 0 326.79 0 0 -76.9 76.88 0 76.9 0 0 -76.9 76.9 0 0 -76.88 76.88 0 0 -76.9 96.13 0 0 -76.9 76.88 0 0 -96.11 76.9 0 0 -76.9 0 -230.67 153.77 0 0 -76.88 76.9 0 0 -249.9 -76.9 0 0 -76.9 -76.87 0 0 -153.77 -76.9 0 0 -96.11 -76.9 0 0 -76.9 -76.88 0 0 -76.9 -96.13 0 0 -76.88 -76.88 0 0 -76.9 -230.67 0 0 -76.9 -326.79 0z"/>
  <path class="fil1" d="M2306.72 788.12l96.11 0 0 -76.9 -96.11 0 0 76.9zm980.36 557.45l-96.13 0 0 -76.88 96.13 0 0 76.88zm-480.57 730.48l-96.11 0 0 -76.9 96.11 0 0 76.9zm0 -1287.93l-96.11 0 0 -76.9 96.11 0 0 76.9zm-980.36 557.45l96.13 0 0 -76.88 -96.13 0 0 76.88zm480.57 730.48l96.11 0 0 -76.9 -96.11 0 0 76.9z"/>
  <path class="fil2" d="M2556.62 2306.72l-153.79 0 -173.01 0 0 -76.9 -76.88 0 -76.9 0 0 -76.9 -76.9 0 0 -76.88 -76.88 0 0 -76.9 -96.13 0 0 -76.9 -76.88 0 -76.9 0 0 -96.11 -76.9 0 0 -153.77 0 -76.9 -153.77 0 0 -76.9 -173.01 0 -153.77 0 0 -76.88 -153.8 0 0 -173 76.9 0 0 -76.9 153.77 0 0 -76.9 76.9 0 0 -76.88 76.9 0 0 -76.9 96.11 0 0 -96.11 76.9 0 0 -76.9 76.87 0 0 -76.9 76.9 0 0 -76.88 76.9 0 0 -76.9 76.88 0 0 -76.9 173 0 0 -76.88 230.67 0 0 -96.13 326.79 0 326.79 0 0 96.13 230.67 0 0 76.88 173 0 0 76.9 76.88 0 0 76.9 76.9 0 0 76.88 76.9 0 0 76.9 76.87 0 0 76.9 76.9 0 0 96.11 96.11 0 0 76.9 76.9 0 0 76.88 76.9 0 0 76.9 153.77 0 0 76.9 76.9 0 0 173 -153.8 0 0 76.88 -153.77 0 -173.01 0 0 76.9 -153.77 0 0 76.9 0 153.77 -76.9 0 0 96.11 -76.9 0 -76.88 0 0 76.9 -96.13 0 0 76.9 -76.88 0 0 76.88 -76.9 0 0 76.9 -76.9 0 -76.88 0 0 76.9 -173.01 0 -153.79 0zm-961.14 -1903.05l-153.77 0 0 76.88 -96.11 0 0 76.9 -76.9 0 0 76.9 -76.9 0 0 76.88 -76.88 0 0 76.9 -153.8 0 0 76.9 -96.11 0 0 96.11 -153.77 0 0 76.9 -153.8 0 0 76.88 -173 0 0 76.9 -230.67 0 0 76.9 -76.87 0 0 76.88 -76.9 0 0 96.13 76.9 0 0 76.88 153.77 0 0 76.9 326.78 0 230.67 0 0 76.9 249.9 0 307.57 0 0 76.88 173.01 0 0 76.9 76.87 0 0 173 76.9 0 0 153.77 76.9 0 0 76.9 76.88 0 0 76.9 96.13 0 0 96.11 153.77 0 0 76.9 153.77 0 76.9 0 0 76.87 249.89 0 249.89 0 0 -76.87 76.9 0 153.77 0 0 -76.9 153.77 0 0 -96.11 96.13 0 0 -76.9 76.88 0 0 -76.9 76.9 0 0 -153.77 76.9 0 0 -173 76.87 0 0 -76.9 173.01 0 0 -76.88 307.57 0 249.9 0 0 -76.9 230.67 0 326.78 0 0 -76.9 153.77 0 0 -76.88 76.9 0 0 -96.13 -76.9 0 0 -76.88 -76.87 0 0 -76.9 -230.67 0 0 -76.9 -173 0 0 -76.88 -153.8 0 0 -76.9 -153.77 0 0 -96.11 -96.11 0 0 -76.9 -153.8 0 0 -76.9 -76.88 0 0 -76.88 -76.9 0 0 -76.9 -76.9 0 0 -76.9 -96.11 0 0 -76.88 -153.77 0 0 -96.13 -76.9 0 0 -76.87 -153.77 0 0 -76.9 -173 0 0 -76.9 -403.68 0 0 -76.88 -153.79 0 -153.79 0 0 76.88 -403.68 0 0 76.9 -173 0 0 76.9 -153.77 0 0 76.87 -76.9 0 0 96.13zm961.14 1268.7l-730.47 0 0 76.88 730.47 0 730.47 0 0 -76.88 -730.47 0z"/>
  <path class="fil3" d="M3440.86 1672.38l0 -153.8 153.77 0 0 -76.88 76.9 0 0 -249.9 -76.9 0 0 -76.9 -76.87 0 0 -153.77 -76.9 0 0 -96.11 -76.9 0 0 -76.9 -76.88 0 0 -76.9 -96.13 0 0 -76.88 -76.88 0 0 -76.9 -230.67 0 0 -76.9 -326.79 0 -326.79 0 0 76.9 -230.67 0 0 76.9 -76.88 0 0 76.88 -96.13 0 0 76.9 -76.88 0 0 76.9 -76.9 0 0 96.11 -76.9 0 0 153.77 -76.87 0 0 76.9 -76.9 0 0 249.9 76.9 0 0 76.88 153.77 0 0 153.8 0 76.88 0 76.9 76.9 0 0 96.11 -76.9 0 0 -96.11 -76.9 0 0 -76.9 0 -76.88 0 -76.9 -153.77 0 0 -76.9 -173.01 0 -153.77 0 0 -76.88 -153.8 0 0 -173 76.9 0 0 -76.9 153.77 0 0 -76.9 76.9 0 0 -76.88 76.9 0 0 -76.9 96.11 0 0 -96.11 76.9 0 0 -76.9 76.87 0 0 -76.9 76.9 0 0 -76.88 76.9 0 0 -76.9 76.88 0 0 -76.9 173 0 0 -76.88 76.9 0 153.77 0 0 -96.13 326.79 0 326.79 0 0 96.13 153.77 0 76.9 0 0 76.88 173 0 0 76.9 76.88 0 0 76.9 76.9 0 0 76.88 76.9 0 0 76.9 76.87 0 0 76.9 76.9 0 0 96.11 96.11 0 0 76.9 76.9 0 0 76.88 76.9 0 0 76.9 153.77 0 0 76.9 76.9 0 0 173 -153.8 0 0 76.88 -153.77 0 -173.01 0 0 76.9 -153.77 0 0 76.9 0 76.88 0 76.9 -76.9 0 0 96.11 -76.9 0 0 -96.11 76.9 0 0 -76.9 0 -76.88zm-884.24 -76.9l-557.46 0 -173 0 0 76.9 173 0 557.46 0 557.46 0 173 0 0 -76.9 -173 0 -557.46 0z"/>
 </g>
</svg>
